<svg xlns="http://www.w3.org/2000/svg" width="400" height="400" viewBox="0 0 430.424 430.424" class="uk-animation-stroke uk-svg" data-svg="./img/art-studies.svg">
    <path d="M179.954 149.88H72.822c-4.971 0-9-4.029-9-9s4.029-9 9-9h107.132c4.971 0 9 4.029 9 9s-4.029 9-9 9zm-9.506 217.225a9 9 0 01-9 9h-33.887v45.319a9.002 9.002 0 01-14.817 6.868L95.69 413.849l-17.051 14.442a9.002 9.002 0 01-14.817-6.868v-45.319h-42.39a9 9 0 01-9-9V27.463C12.432 12.321 23.196.002 36.427.002H286.03c4.971 0 9 4.029 9 9s-4.029 9-9 9H36.427c-2.83 0-5.995 4.046-5.995 9.461v9.464H286.03a9 9 0 019 9v87.604c0 4.971-4.029 9-9 9s-9-4.029-9-9V54.927H30.432v303.177h131.016c4.97.001 9 4.03 9 9.001zm-60.887 9H81.822v25.902l8.051-6.819a8.985 8.985 0 015.817-2.132c2.069 0 4.138.71 5.816 2.132l8.055 6.821v-25.904zm308.432-85.621c0 68.206-55.489 123.694-123.694 123.694s-123.694-55.489-123.694-123.694 55.489-123.695 123.694-123.695c12.619 0 31.688 0 42.341 15.232 4.517 6.462 12.44 24.063-11.453 47.912-7.757 7.742-7.769 20.351-.028 28.108 7.748 7.748 20.361 7.764 28.11.028 15.864-15.833 28.883-17.414 37.012-15.953 9.75 1.753 17.89 8.751 22.921 19.705 4.21 9.164 4.791 19.192 4.791 28.663zm-18 0c0-8.583-.535-15.464-3.147-21.15-1.77-3.854-4.898-8.629-9.75-9.502-5.522-.991-13.022 2.906-21.111 10.978-14.768 14.74-38.795 14.719-53.561-.046-14.758-14.79-14.734-38.818.047-53.57 5.894-5.882 14.954-16.935 9.417-24.857-4.889-6.991-14.948-7.546-27.589-7.546-58.28 0-105.694 47.415-105.694 105.695 0 58.28 47.414 105.694 105.694 105.694 58.28-.002 105.694-47.416 105.694-105.696zm-73.456 16.546s0-.001 0 0zM72.822 167.169c-4.971 0-9 4.029-9 9s4.029 9 9 9H109.1c4.971 0 9-4.029 9-9s-4.029-9-9-9H72.822zM328.704 15.667a9 9 0 01-2.238-10.182A8.992 8.992 0 01335.344.02c62.825 4.153 69.792 40.796 68.842 72.256v.001c-.445 14.619-9.971 26.646-22.992 30.539v106.939c0 4.971-4.029 9-9 9s-9-4.029-9-9v-106.85c-13.431-3.854-23.288-16.249-23.288-30.901 0-4.136.032-7.969.063-11.537.23-27.205-.168-34.736-11.265-44.8zm25.481 5.38c4.029 10.581 3.925 22.75 3.784 39.573-.03 3.521-.062 7.302-.062 11.384 0 7.797 6.344 14.141 14.142 14.141 7.686 0 13.899-6.331 14.146-14.413.646-21.419-1.657-42.605-32.01-50.685zm-96.824 297.392c-4.841 4.831-11.271 7.491-18.108 7.491h-.025c-6.847-.007-13.281-2.679-18.117-7.525-9.984-10.002-9.968-26.264.035-36.248 10.003-9.984 26.265-9.968 36.25.033 9.982 10.002 9.967 26.264-.035 36.249zm-12.706-23.533a7.608 7.608 0 00-5.402-2.236 7.609 7.609 0 00-5.392 2.227c-2.978 2.973-2.983 7.814-.01 10.792a7.58 7.58 0 005.394 2.241h.008c2.036 0 3.95-.792 5.391-2.23 2.978-2.973 2.983-7.816.011-10.794zm57.867 32.498c9.984 10.005 9.968 26.266-.035 36.25-4.995 4.985-11.552 7.478-18.107 7.478-6.572 0-13.144-2.504-18.142-7.513-4.837-4.845-7.498-11.285-7.491-18.131.006-6.846 2.679-13.28 7.525-18.117 10.005-9.986 26.266-9.971 36.25.033zm-12.74 12.715c-2.973-2.978-7.815-2.982-10.793-.009-1.443 1.44-2.239 3.356-2.241 5.394s.791 3.955 2.231 5.398c2.973 2.979 7.814 2.984 10.793.011 2.978-2.972 2.983-7.815.01-10.794zM72.822 114.594H158.1c4.971 0 9-4.029 9-9s-4.029-9-9-9H72.822c-4.971 0-9 4.029-9 9s4.029 9 9 9zm166.63 141.469c-4.836-4.845-7.497-11.285-7.49-18.131.007-6.846 2.679-13.281 7.526-18.118 10.002-9.983 26.264-9.968 36.248.034 4.836 4.845 7.498 11.285 7.491 18.131-.006 6.846-2.678 13.281-7.523 18.118-4.84 4.831-11.27 7.491-18.107 7.491h-.026c-6.848-.007-13.283-2.679-18.119-7.525zm10.51-18.114a7.585 7.585 0 002.231 5.398 7.58 7.58 0 005.395 2.241h.008c2.036 0 3.95-.792 5.392-2.23 1.442-1.439 2.238-3.355 2.24-5.394s-.791-3.956-2.231-5.399a7.605 7.605 0 00-5.401-2.236 7.609 7.609 0 00-5.392 2.227 7.575 7.575 0 00-2.242 5.393zm112.826 69.115c9.984 10.003 9.968 26.265-.036 36.249-4.839 4.831-11.269 7.49-18.106 7.49h-.024c-6.847-.006-13.281-2.679-18.118-7.525-9.983-10.004-9.968-26.265.034-36.249 4.839-4.831 11.27-7.491 18.107-7.491h.024c6.847.007 13.281 2.68 18.119 7.526zm-10.511 18.114a7.582 7.582 0 00-2.23-5.398 7.583 7.583 0 00-5.396-2.241h-.007c-2.036 0-3.95.792-5.391 2.23-2.978 2.973-2.982 7.815-.009 10.794a7.581 7.581 0 005.393 2.24h.007c2.036 0 3.95-.792 5.391-2.23a7.583 7.583 0 002.242-5.395z" fill="none" stroke="#0045d4" stroke-linecap="round" stroke-width="2" />
</svg>