<svg xmlns="http://www.w3.org/2000/svg" viewBox="0 0 463 463" class="uk-animation-stroke uk-svg" data-svg="./img/museum.svg">
    <path d="M399.5 0h-336A7.5 7.5 0 0056 7.5v448a7.5 7.5 0 007.5 7.5h336a7.5 7.5 0 007.5-7.5V7.5a7.5 7.5 0 00-7.5-7.5zM71 25.606l17 17v377.787l-17 17V25.606zM103 416V47h257v369H103zM364.394 32H98.606l-17-17h299.787l-16.999 17zM98.606 431h265.787l17 17H81.606l17-17zM375 420.394V42.606l17-17v411.787l-17-16.999z"/><path d="M335.5 64h-208a7.5 7.5 0 00-7.5 7.5v320a7.5 7.5 0 007.5 7.5h208a7.5 7.5 0 007.5-7.5v-320a7.5 7.5 0 00-7.5-7.5zM210.37 232.571a7.5 7.5 0 00-8.173 1.626l-3.579 3.579c-8.336 8.336-21.9 8.337-30.252-.016-5.28-5.28-7.435-13.06-5.624-20.304L191.5 102.422l10.71 42.841a14.494 14.494 0 00-2.71-.263c-7.995 0-14.5 6.505-14.5 14.5s6.505 14.5 14.5 14.5c3.44 0 6.601-1.21 9.09-3.219L231.894 264H215v-24.5a7.499 7.499 0 00-4.63-6.929zM200 159.5a.5.5 0 11-1 0 .5.5 0 011 0zm7.5 198.75c15.606 0 28.674 11.059 31.79 25.75h-63.58c3.116-14.691 16.184-25.75 31.79-25.75zm7.5-14.402v-23.199l32.691 6.538L261.894 384h-7.382c-2.937-20.548-19.067-36.895-39.512-40.152zm9.35-36.627l15.186-12.655 4.13 16.518-19.316-3.863zm50.913 68.409l-22.932-91.727 7.97-6.642a7.5 7.5 0 00-4.801-13.262h-8.144l-17.659-70.636c10.956 8.412 25.722 13.386 41.303 13.386 17.7 0 34.349-6.418 45.553-17.005C324.055 209.327 328 230.27 328 251.5c0 47.067-19.094 91.678-52.737 124.13zm34.129-200.13c-2.216 2.746-4.934 5.198-8.018 7.327.567-2.352.876-4.804.876-7.327s-.309-4.975-.876-7.327c3.084 2.129 5.801 4.581 8.018 7.327zm-22.142 0c0 8.96-7.29 16.25-16.25 16.25s-16.25-7.29-16.25-16.25 7.29-16.25 16.25-16.25 16.25 7.29 16.25 16.25zm-46.624 7.327c-3.084-2.13-5.801-4.581-8.018-7.327 2.216-2.746 4.934-5.198 8.018-7.327-.567 2.352-.876 4.804-.876 7.327s.309 4.975.876 7.327zM271 144.25c-19.359 0-37.466 7.672-48.561 20.085l-19.693-78.77c33.366 9.511 63.468 29.114 85.783 56.112a170.744 170.744 0 014.806 6.096c-6.995-2.283-14.563-3.523-22.335-3.523zM135 79h46.894L148.19 213.818c-3.082 12.326.585 25.563 9.585 34.564 11.407 11.406 28.564 13.64 42.225 6.702V271.5a7.5 7.5 0 007.5 7.5h27.285l-32.086 26.738A7.5 7.5 0 00200 311.5v32.348c-20.445 3.258-36.575 19.604-39.512 40.152H135V79zm193 305h-39.84A187.288 187.288 0 00328 325.037V384zm-27.908-251.879C280.893 108.893 256.383 90.704 229.006 79H328v99.069c-7.01-16.487-16.375-31.994-27.908-45.948z" fill="none" stroke="#0045d4" stroke-linecap="round" stroke-width="2" />
</svg>