<svg xmlns="http://www.w3.org/2000/svg" viewBox="0 0 512 512" class="uk-animation-stroke uk-svg" data-svg="./img/painting-art.svg">
    <path d="M503.523 50.424H8.477A8.477 8.477 0 000 58.901v394.198a8.477 8.477 0 008.477 8.477h495.047a8.477 8.477 0 008.477-8.477V58.901a8.479 8.479 0 00-8.478-8.477zm-20.465 16.954l-20.945 20.945H49.887L28.942 67.378h454.116zM280.699 349.653a173.446 173.446 0 007.741 5.755c-106.191 3.796-149.514 39.992-160.531 51.317H54.852V300.434c20.316-4.92 41.275-7.419 62.405-7.419 59.965 0 116.482 19.585 163.442 56.638zm-179.67-124.781c0-9.837 8.003-17.841 17.841-17.841s17.841 8.003 17.841 17.841-8.003 17.841-17.841 17.841-17.841-8.004-17.841-17.841zM306.79 372.031c3.677 0 7.447.046 11.272.125a173.319 173.319 0 0012.218 4.867c-1.57.443-3.161.903-4.776 1.383-27.31 8.127-47.212 17.645-59.273 28.315h-111.44c21.692-14.297 67.449-34.69 151.999-34.69zm23.374 22.678c17.49-5.216 32.922-8.208 37.113-8.981a167.717 167.717 0 0019.601 1.217l.784.001c23.553 0 46.873-2.917 69.485-8.667v28.443H297.865c8.952-4.237 19.778-8.278 32.299-12.013zm57.499-24.714l-.743-.001c-34.345-.095-68.339-12.045-95.72-33.65-47.338-37.35-103.799-58.012-163.854-60.094v-17.633c15.101-3.795 26.317-17.482 26.317-33.745 0-19.186-15.608-34.794-34.794-34.794s-34.794 15.608-34.794 34.794c0 16.263 11.216 29.95 26.317 33.745v17.537a282.062 282.062 0 00-55.541 6.868V105.276h402.295V360.75h.001c-22.545 6.13-45.887 9.245-69.484 9.245zM16.953 79.366l20.945 20.945V411.69l-20.945 20.945V79.366zM28.94 444.622l20.946-20.945h412.226l20.945 20.945H28.94zm466.107-11.988l-20.945-20.945V100.311l20.945-20.945v353.268z" fill="none" stroke="#0045d4" stroke-linecap="round" stroke-width="2"/>
    <path d="M378.885 128.891c-24.866 0-45.096 20.23-45.096 45.096 0 24.866 20.23 45.096 45.096 45.096s45.096-20.23 45.096-45.096-20.23-45.096-45.096-45.096zm0 73.239c-15.518 0-28.143-12.625-28.143-28.143s12.625-28.143 28.143-28.143 28.143 12.625 28.143 28.143-12.625 28.143-28.143 28.143zM410.013 260.128c-7.074 0-13.516 2.757-18.31 7.252-4.793-4.495-11.236-7.252-18.31-7.252a8.477 8.477 0 00-8.477 8.477 8.477 8.477 0 008.477 8.477c5.422 0 9.833 4.411 9.833 9.833a8.477 8.477 0 008.477 8.477 8.477 8.477 0 008.477-8.477c0-5.422 4.411-9.833 9.833-9.833a8.477 8.477 0 008.477-8.477 8.476 8.476 0 00-8.477-8.477z" fill="none" stroke="#0045d4" stroke-linecap="round" stroke-width="2" />
</svg>