<svg xmlns="http://www.w3.org/2000/svg" width="193.831" height="193.831" class="uk-animation-stroke uk-svg" data-svg="./img/painbrush-and-painter-palette.svg">
    <path d="M119.419 94.771c-3.551-2.781.036-9.093 2.17-13.25 2.705-5.27 6.194-10.082 9.007-15.286 6.666-12.332 3.383-29.713-3.231-41.243-17.819-31.061-59.112-11.882-79.868 4.402C20.795 50.345 1.468 78.158.058 112.926c-1.537 37.855 27.99 63.878 64.88 64.047 15.057.068 28.898-5.879 42.181-12.303 12.377-5.984 24.644-13.346 33.499-24.051 17.137-20.716-.235-39.64-21.199-45.848zm5.748 52.796c-18.325 14.029-42.936 24.998-66.176 23.949-22.125-.999-42.664-14.452-50.293-35.37-6.386-17.511-3.105-37.263 3.363-54.204 6.199-16.235 18.315-29.737 31.051-41.215C56.668 28.51 73.915 17.097 92.394 14.74c20.959-2.675 34.491 13.479 35.566 33.294.783 14.452-8.782 22.95-13.843 35.443-2.396 5.915-2.872 12.579 1.362 15.498.299.297.682.541 1.182.685l.146.044a9.15 9.15 0 001.789.543c8.854 2.796 17.484 7.26 22.109 15.67 6.68 12.149-6.948 25.074-15.538 31.65z"/><path d="M101.131 34.277c-12.36-11.747-33.108 13.765-21.06 26.145 7.658 7.869 22.238.136 26.102-7.946 3.667-7.67.858-14.959-5.042-18.199zm-1.295 17.535c-2.713 4.292-13.401 9.062-16.663 2.996-2.283-4.246.704-10.329 3.164-13.753 1.163-1.618 2.455-2.676 3.837-3.339.379.235.84.359 1.379.307 3.839-.37 7.499-.067 9.549 3.585 1.81 3.227.556 7.322-1.266 10.204zM52.571 64.276a9.217 9.217 0 00-3.492.375c-5.768.128-9.415 5.714-10.132 11.835a10.902 10.902 0 00.24 5.877c.086.409.181.815.297 1.213 1.383 4.733 5.135 8.396 10.176 8.598 7.232.289 11.72-6.587 12.791-12.919 1.207-7.13-2.127-14.289-9.88-14.979zM43.067 103.577c-5.866-3.049-12.084-.302-15.694 4.809-3.715 5.26-4.986 12.658-.016 17.569 4.274 4.225 11.477 2.937 15.785-.449 2.764-2.173 4.428-5.325 4.559-8.521.283-.829.49-1.645.599-2.419.637-4.53-1.052-8.816-5.233-10.989zM59.134 135.775c-.689.663-1.305 1.472-1.854 2.366-1.831 1.516-3.2 4.124-3.809 6.509-1.138 4.455.545 10.198 4.884 12.309 7.618 3.707 17.788-3.7 17.519-11.866-.251-7.64-10.229-15.583-16.74-9.318zM175.538 14.614c-.759-1.065-1.896-1.355-2.918-1.147-.922-.297-2.009-.088-2.427.891-5.996 14.02-33.74 42.598-13.197 55.714 1.844 1.177 3.788 2.03 5.772 2.642-.195 1.899-.174 3.852-.32 5.318-1.157 11.555-.937 23.534-.65 35.13.589 23.815 2.22 47.591 8.197 70.731.423 1.636 3.009 2.159 3.789.495 7.41-15.813 7.801-32.974 7.571-50.133-.279-20.873-.405-41.709-1.812-62.543 4.711-2.056 8.81-5.567 11.44-10.303 9.3-16.74-6.389-34.079-15.445-46.795zm-12.433 43.868c-.535 2.266-.984 4.77-3.235 2.566-4.208-4.122-2.424-10.393-.697-15.202 1.019-2.834 2.416-5.684 4.027-8.474.447-.719.876-1.41 1.258-2.048.122-.204.254-.412.379-.617-.952 7.793.005 16.413-1.732 23.775zm2.754 38.473c.059-4.545.164-9.09.33-13.628.102-2.79.149-5.519.138-8.308-.002-.492.005-.981.011-1.47 3.017.435 6.063.26 8.984-.426.501 7.65.812 15.297 1.047 22.947-.25.039-.51.112-.778.247-3.039 1.529-6.647 2.108-9.732.638z" fill="none" stroke="#0045d4" stroke-linecap="round" stroke-width="2" />
</svg>