<svg xmlns="http://www.w3.org/2000/svg" viewBox="0 0 433.313 433.313" class="uk-animation-stroke uk-svg" data-svg="./img/painter.svg">
    <path d="M428.273 318.911c-1.249-27.578-12.998-53.165-33.082-72.045-.746-.702-3.213-2.914-3.662-3.313-12.224-10.88-27.942-16.172-44.263-14.91-.723.056-1.438.14-2.154.221L61.398 3.818c-7.324-5.811-17.931-4.89-24.147 2.093-6.212 6.98-5.898 17.62.716 24.222l254.484 253.99c-1.113 17.113 5.078 34.551 18.28 47.123 7.765 7.393 17.347 12.563 27.71 14.95 22.031 5.077 38.76 21.168 43.657 41.994a93.752 93.752 0 011.131 5.606c-40.067 17.669-90.358 27.368-142.217 27.368-16.737 0-33.187-.984-49.134-2.893-34.587-5.008-66.248-16.091-91.704-32.415-35.023-22.458-54.249-52.38-54.249-84.255 0-41.526 25.861-73.948 81.282-101.712 2.981-1.493 4.352-5.001 3.148-8.11a6.467 6.467 0 00-8.006-3.821c-33.713 10.854-62.165 26.238-82.558 44.681-22.806 20.625-34.862 44.521-34.862 69.103 0 35.799 25.044 69.166 70.519 93.954 32.176 17.54 71.985 29.352 115.275 34.513 14.286 2.05 29.008 3.103 43.936 3.103v-.198c2.114.031 4.231.049 6.354.049 52.574 0 103.441-10.362 144.919-27.454 4.978-2.051 13.323-9.171 15.76-11.908 18.393-20.663 27.832-47.259 26.581-74.89zM16.929 301.742c0-27.189 17.655-53.165 48.587-73.972-21.362 21.407-31.619 45.651-31.619 73.83 0 29.086 13.778 56.484 39.304 78.974-36.369-21.94-56.272-49.697-56.272-78.832zM46.215 13.888a5.651 5.651 0 017.727-.669l250.496 198.697c-8.723 3.71-16.411 9.454-22.607 16.982a59.044 59.044 0 00-10.001 17.688L46.444 21.639a5.652 5.652 0 01-.229-7.751zm235.291 242.357a47.16 47.16 0 019.591-19.722c6.422-7.803 14.844-13.212 24.477-15.773l14.771 11.717c-9.46 3.646-17.878 9.685-24.535 17.773a58.957 58.957 0 00-10.674 19.609l-13.63-13.604zM393.626 384.8c-6.141-24.997-26.194-44.239-52.489-50.298-8.27-1.906-15.923-6.037-22.131-11.948-17.975-17.116-19.701-45.53-3.931-64.689 8.329-10.119 20.091-16.248 33.119-17.258a49.064 49.064 0 013.784-.147c11.666 0 22.757 4.21 31.57 12.055.492.439 2.776 2.486 3.422 3.093 17.797 16.731 28.208 39.406 29.315 63.847 1.089 24.032-6.949 47.182-22.659 65.345z" fill="none" stroke="#0045d4" stroke-linecap="round" stroke-width="2" />
</svg>