<svg xmlns="http://www.w3.org/2000/svg" viewBox="0 0 511 511" class="uk-animation-stroke uk-svg" data-svg="./img/picture.svg">
    <path d="M502.5 64H8.5C3.813 64 0 67.813 0 72.5v366c0 4.687 3.813 8.5 8.5 8.5h494c4.687 0 8.5-3.813 8.5-8.5v-366c0-4.687-3.813-8.5-8.5-8.5zM456 119v145.051c-58.691.722-92.355 9.852-122.182 17.95-2.79.757-5.562 1.509-8.334 2.25l-44.397-44.397c-17.756-17.756-46.178-18.477-64.816-2.188l-40.155-40.155c-9.162-9.163-24.071-9.163-33.233 0L55 285.394V119h401zM255.16 296.008a7.515 7.515 0 00-1.723.288c-18.243-5.429-38.537-10.466-61.349-13.404l32.431-32.432c12.672-12.671 33.29-12.672 45.962 0l38.07 38.071c-15.639 3.649-32.413 6.523-53.391 7.477zm-182.844-6.717l81.174-81.174c3.314-3.313 8.706-3.313 12.021 0l40.07 40.07-32.802 32.802c-29.328-2.011-62.538-.253-100.463 8.302zM55 392v-82.833c45.039-12.669 87.215-16.673 128.744-12.188 37.223 4.021 67.568 14.065 94.341 22.927C302.553 328.005 323.685 335 343.5 335a7.5 7.5 0 000-15c-15.846 0-33.916-5.515-54.57-12.31 17.879-2.817 33.071-6.938 48.818-11.213 30.331-8.234 61.669-16.732 118.252-17.426V392H55zm405.394-288H50.606l-25-25h459.787l-24.999 25zM40 114.606V396.393l-25 25V89.606l25 25zM50.606 407h409.787l25 25H25.606l25-25zM471 396.394V114.606l25-25v331.787l-25-24.999z" fill="none" stroke="#0045d4" stroke-linecap="round" stroke-width="2"/>
    <path d="M367.5 223c17.369 0 31.5-14.131 31.5-31.5S384.869 160 367.5 160 336 174.131 336 191.5s14.131 31.5 31.5 31.5zm0-48c9.098 0 16.5 7.402 16.5 16.5s-7.402 16.5-16.5 16.5-16.5-7.402-16.5-16.5 7.402-16.5 16.5-16.5z" fill="none" stroke="#0045d4" stroke-linecap="round" stroke-width="2" />
</svg>