<?xml version="1.0" standalone="no"?>
<!DOCTYPE svg PUBLIC "-//W3C//DTD SVG 20010904//EN"
 "http://www.w3.org/TR/2001/REC-SVG-20010904/DTD/svg10.dtd">
<svg version="1.0" xmlns="http://www.w3.org/2000/svg"
 width="260.000000pt" height="260.000000pt" viewBox="0 0 260.000000 260.000000"
 preserveAspectRatio="xMidYMid meet">
<metadata>
Created by potrace 1.11, written by Peter Selinger 2001-2013
</metadata>
<g transform="translate(0.000000,260.000000) scale(0.100000,-0.100000)"
fill="#000000" stroke="none">
<path d="M160 1385 l0 -555 243 0 c278 0 341 10 457 67 128 62 210 164 256
319 13 43 18 91 18 174 0 98 -4 126 -28 194 -48 142 -128 235 -253 296 -99 49
-183 60 -454 60 l-239 0 0 -555z m504 273 c60 -18 131 -92 150 -159 37 -124
12 -254 -62 -328 -57 -56 -101 -71 -211 -71 l-81 0 0 285 0 285 81 0 c45 0
100 -6 123 -12z"/>
<path d="M1280 1385 l0 -555 150 0 150 0 2 285 3 285 90 -197 91 -198 75 -3
c53 -2 79 1 86 10 6 7 48 96 94 198 l84 185 3 -282 2 -283 155 0 155 0 0 555
0 555 -167 -2 -167 -3 -116 -253 c-64 -140 -120 -254 -124 -253 -5 0 -60 115
-124 255 l-116 256 -163 0 -163 0 0 -555z"/>
</g>
</svg>
